<svg xmlns="http://www.w3.org/2000/svg" version="1.1" xmlns:xlink="http://www.w3.org/1999/xlink" xmlns:svgjs="http://svgjs.dev/svgjs" width="1500" height="481" viewBox="0 0 1500 481"><g transform="matrix(1,0,0,1,-0.9090909090909918,-0.754486761669682)"><svg viewBox="0 0 396 127" data-background-color="#ffffff" preserveAspectRatio="xMidYMid meet" height="481" width="1500" xmlns="http://www.w3.org/2000/svg" xmlns:xlink="http://www.w3.org/1999/xlink"><g id="tight-bounds" transform="matrix(1,0,0,1,0.2400000000000091,0.1992096023535339)"><svg viewBox="0 0 395.52 126.60158079529292" height="126.60158079529292" width="395.52"><g><svg viewBox="0 0 606.5734623609293 194.15746157809406" height="126.60158079529292" width="395.52"><g transform="matrix(1,0,0,1,211.05346236092933,54.82088807008972)"><svg viewBox="0 0 395.52 84.51568543791461" height="84.51568543791461" width="395.52"><g id="textblocktransform"><svg viewBox="0 0 395.52 84.51568543791461" height="84.51568543791461" width="395.52" id="textblock"><g><svg viewBox="0 0 395.52 84.51568543791461" height="84.51568543791461" width="395.52"><g transform="matrix(1,0,0,1,0,0)"><svg width="395.52" viewBox="-2.8699421965317917 -42.55 214.84994219653177 46.699999999999996" height="84.51568543791461" data-palette-color="#1a7adb"><path d="M18.65 0.15L18.65 0.15Q15.3 0.15 13.13-1.15 10.95-2.45 9.58-4.9 8.2-7.35 7.1-10.85L7.1-10.85 1.5-28.8Q0.7-31.3 1.63-33.18 2.55-35.05 4.95-35.75L4.95-35.75Q7.15-36.4 8.95-35.48 10.75-34.55 11.4-32.35L11.4-32.35 16.85-15.05Q17.7-12.25 19.03-11.33 20.35-10.4 21.9-10.9L21.9-10.9Q23.5-11.35 23.95-12.73 24.4-14.1 23.7-16.9L23.7-16.9Q22.55-21.9 22.15-24.75 21.75-27.6 21.75-29.25L21.75-29.25Q21.75-32.05 23.28-34.08 24.8-36.1 28-36.1L28-36.1Q31.15-36.1 32.58-34.08 34-32.05 34-29.25L34-29.25Q34-27.6 33.55-25.85 33.1-24.1 32.5-22.25L32.5-22.25 28.05-8.8Q27.15-6.1 26.08-4.08 25-2.05 23.28-0.95 21.55 0.15 18.65 0.15ZM49.1 0.1L49.1 0.1Q43.25 0.1 39.77-3.38 36.3-6.85 36.3-13.2L36.3-13.2Q36.3-17.1 37.9-20.05 39.5-23 42.37-24.68 45.25-26.35 49.1-26.35L49.1-26.35Q53.4-26.35 56.25-24.68 59.1-23 60.52-20.05 61.95-17.1 61.95-13.2L61.95-13.2Q61.95-6.85 58.77-3.38 55.6 0.1 49.1 0.1ZM42.25-14.05L42.25-14.05Q42.25-12.5 43.8-11.88 45.35-11.25 49.1-11.25L49.1-11.25Q52.85-11.25 54.4-11.88 55.95-12.5 55.95-14.05L55.95-14.05Q55.95-15.55 54.4-16.15 52.85-16.75 49.1-16.75L49.1-16.75Q45.35-16.75 43.8-16.15 42.25-15.55 42.25-14.05ZM64.2-31.95L64.2-31.95Q64.2-34.1 65.52-35.43 66.84-36.75 69.2-36.75L69.2-36.75Q71.7-36.75 72.92-35.45 74.15-34.15 74.15-32L74.15-32Q74.15-29.9 72.92-28.63 71.7-27.35 69.2-27.35L69.2-27.35Q66.75-27.35 65.47-28.63 64.2-29.9 64.2-31.95ZM69.2 0L69.2 0Q66.84 0 65.7-1.3 64.55-2.6 64.55-4.55L64.55-4.55 64.55-21.65Q64.55-23.8 65.7-25.05 66.84-26.3 69.2-26.3L69.2-26.3Q71.55-26.3 72.72-25.05 73.9-23.8 73.9-21.75L73.9-21.75 73.9-4.55Q73.9-2.6 72.67-1.3 71.45 0 69.2 0ZM89.49 0.15L89.49 0.15Q85.59 0.15 82.59-1.48 79.59-3.1 77.89-6.1 76.19-9.1 76.19-13.15L76.19-13.15Q76.19-17.2 77.89-20.2 79.59-23.2 82.62-24.85 85.64-26.5 89.59-26.5L89.59-26.5Q92.69-26.5 95.07-25.85 97.44-25.2 98.82-23.9 100.19-22.6 100.19-20.65L100.19-20.65Q100.19-18.3 98.99-16.98 97.79-15.65 95.54-15.65L95.54-15.65Q94.04-15.65 92.57-16.1 91.09-16.55 88.79-16.55L88.79-16.55Q86.89-16.55 85.59-15.95 84.29-15.35 84.29-13.75L84.29-13.75Q84.29-12.1 85.59-11.38 86.89-10.65 88.79-10.65L88.79-10.65Q90.34-10.65 91.39-10.95 92.44-11.25 93.39-11.55 94.34-11.85 95.54-11.85L95.54-11.85Q98.09-11.85 99.32-10.38 100.54-8.9 100.54-6.6L100.54-6.6Q100.54-4.65 99.09-3.13 97.64-1.6 95.14-0.73 92.64 0.15 89.49 0.15ZM102.34-13L102.34-13Q102.34-16.95 103.92-19.95 105.49-22.95 108.42-24.65 111.34-26.35 115.39-26.35L115.39-26.35Q118.54-26.35 121.07-25.2 123.59-24.05 125.04-22.13 126.49-20.2 126.49-17.9L126.49-17.9Q126.49-15.5 125.09-14.5 123.69-13.5 120.94-13.5L120.94-13.5 110.44-13.5Q110.44-12.2 111.47-11.35 112.49-10.5 114.94-10.5L114.94-10.5Q116.19-10.5 117.27-10.75 118.34-11 119.47-11.23 120.59-11.45 121.99-11.45L121.99-11.45Q123.99-11.45 125.29-10.03 126.59-8.6 126.59-6.1L126.59-6.1Q126.59-3.15 123.57-1.5 120.54 0.15 115.64 0.15L115.64 0.15Q112.19 0.15 109.17-1.2 106.14-2.55 104.24-5.48 102.34-8.4 102.34-13ZM110.59-15.15L118.54-15.15Q119.29-15.15 119.04-15.85L119.04-15.85Q118.84-16.55 117.84-17.3 116.84-18.05 114.94-18.05L114.94-18.05Q112.74-18.05 111.67-17.1 110.59-16.15 110.59-15.15L110.59-15.15ZM133.54 0L133.54 0Q131.09 0 129.86-1.3 128.64-2.6 128.64-4.55L128.64-4.55 128.64-33.55Q128.64-35.7 129.86-37.13 131.09-38.55 133.54-38.55L133.54-38.55Q135.74-38.55 136.94-37.13 138.14-35.7 138.14-33.65L138.14-33.65 138.14-4.55Q138.14-2.6 136.94-1.3 135.74 0 133.54 0ZM140.44-31.95L140.44-31.95Q140.44-34.1 141.76-35.43 143.09-36.75 145.44-36.75L145.44-36.75Q147.94-36.75 149.16-35.45 150.39-34.15 150.39-32L150.39-32Q150.39-29.9 149.16-28.63 147.94-27.35 145.44-27.35L145.44-27.35Q142.99-27.35 141.71-28.63 140.44-29.9 140.44-31.95ZM145.44 0L145.44 0Q143.09 0 141.94-1.3 140.79-2.6 140.79-4.55L140.79-4.55 140.79-21.65Q140.79-23.8 141.94-25.05 143.09-26.3 145.44-26.3L145.44-26.3Q147.79-26.3 148.96-25.05 150.14-23.8 150.14-21.75L150.14-21.75 150.14-4.55Q150.14-2.6 148.91-1.3 147.69 0 145.44 0ZM157.73 0L157.73 0Q155.53 0 154.21-1.33 152.88-2.65 152.88-4.6L152.88-4.6 152.88-21.15Q152.88-23.25 154.13-24.7 155.38-26.15 157.73-26.15L157.73-26.15Q160.03-26.15 161.23-24.7 162.43-23.25 162.43-21.05L162.43-21.05 162.43-18.55 163.33-18.55Q163.33-21.4 164.36-23.05 165.38-24.7 166.98-25.43 168.58-26.15 170.18-26.15L170.18-26.15Q174.03-26.15 175.83-23.38 177.63-20.6 177.63-15.5L177.63-15.5 177.63-4.6Q177.63-2.65 176.33-1.33 175.03 0 172.83 0L172.83 0Q170.58 0 169.26-1.33 167.93-2.65 167.93-4.6L167.93-4.6 167.93-13.45Q167.93-15.25 167.26-16.25 166.58-17.25 165.28-17.25L165.28-17.25Q163.78-17.25 163.11-16.15 162.43-15.05 162.43-13.35L162.43-13.35 162.43-4.6Q162.43-2.65 161.18-1.33 159.93 0 157.73 0ZM185.03 0L185.03 0Q182.83 0 181.53-1.33 180.23-2.65 180.23-4.6L180.23-4.6 180.23-33.55Q180.23-35.65 181.51-37.1 182.78-38.55 185.13-38.55L185.13-38.55Q187.43-38.55 188.61-37.1 189.78-35.65 189.78-33.5L189.78-33.5 189.78-18.35 189.93-18.3Q190.18-20.4 191.23-22.18 192.28-23.95 194.18-25.05 196.08-26.15 198.83-26.15L198.83-26.15Q202.53-26.15 204.78-24.1 207.03-22.05 207.03-18.5L207.03-18.5Q207.03-16.05 206.06-14.63 205.08-13.2 203.43-12.65 201.78-12.1 199.78-12.15L199.78-12.15 199.78-11.3Q204.23-11.3 206.11-9.53 207.98-7.75 207.98-5.05L207.98-5.05Q207.98-2.55 206.48-1.2 204.98 0.15 202.88 0.1L202.88 0.1Q200.58 0.05 199.08-1.25 197.58-2.55 196.58-4.75L196.58-4.75 194.43-9.3Q193.78-10.65 192.76-11.25 191.73-11.85 189.78-11.7L189.78-11.7 189.78-4.6Q189.78-2.65 188.51-1.33 187.23 0 185.03 0ZM190.83-15.1L190.83-15.1Q190.83-14.4 191.56-14.08 192.28-13.75 194.58-13.75L194.58-13.75Q196.83-13.75 197.58-14.05 198.33-14.35 198.33-15.1L198.33-15.1Q198.33-15.8 197.58-16.15 196.83-16.5 194.63-16.5L194.63-16.5Q192.28-16.5 191.56-16.15 190.83-15.8 190.83-15.1Z" opacity="1" transform="matrix(1,0,0,1,0,0)" fill="#1a7adb" class="wordmark-text-0" data-fill-palette-color="primary" id="text-0"></path></svg></g></svg></g></svg></g></svg></g><g><svg viewBox="0 0 194.15746157809406 194.15746157809406" height="194.15746157809406" width="194.15746157809406"><g><svg></svg></g><g id="icon-0"><svg viewBox="0 0 194.15746157809406 194.15746157809406" height="194.15746157809406" width="194.15746157809406"><g><rect width="176.53946969415588" height="176.53946969415588" x="8.808995941969087" y="8.808995941969087" fill="#157ae0" data-fill-palette-color="accent"></rect><rect width="176.53946969415588" height="176.53946969415588" x="17.617991883938167" y="7.105427357601002e-15" fill="#157ae0" opacity="0.5" data-fill-palette-color="accent"></rect></g><g transform="matrix(1,0,0,1,25.16855983419738,39.550594025167314)"><svg viewBox="0 0 143.8203419096993 115.05627352775943" height="115.05627352775943" width="143.8203419096993"><g><svg xmlns="http://www.w3.org/2000/svg" viewBox="1 4 30 24" x="0" y="0" height="115.05627352775943" width="143.8203419096993" class="icon-cg-0" data-fill-palette-color="quaternary" id="cg-0"><g data-name="Layer 2" fill="#ffffff" data-fill-palette-color="quaternary"><path d="M19 28H13a3 3 0 0 1-3-3v-4.2a1 1 0 0 1 1-1h0a1 1 0 0 1 1 1V25a1 1 0 0 0 1 1H19a1 1 0 0 0 1-1V7a1 1 0 0 0-1-1H13a1 1 0 0 0-1 1V12.5a1 1 0 0 1-1 1h0a1 1 0 0 1-1-1V7a3 3 0 0 1 3-3H19a3 3 0 0 1 3 3V25A3 3 0 0 1 19 28Z" fill="#ffffff" data-fill-palette-color="quaternary"></path><rect x="5" y="6" width="2" height="20" rx="1" ry="1" fill="#ffffff" data-fill-palette-color="quaternary"></rect><rect x="1" y="9.56" width="2" height="12.88" rx="1" ry="1" fill="#ffffff" data-fill-palette-color="quaternary"></rect><rect x="25" y="6" width="2" height="20" rx="1" ry="1" fill="#ffffff" data-fill-palette-color="quaternary"></rect><rect x="29" y="9.56" width="2" height="12.88" rx="1" ry="1" fill="#ffffff" data-fill-palette-color="quaternary"></rect></g></svg></g></svg></g></svg></g></svg></g></svg></g><defs></defs></svg><rect width="395.52" height="126.60158079529292" fill="none" stroke="none" visibility="hidden"></rect></g></svg></g></svg>